<svg width="28" height="28" viewBox="0 0 28 28" fill="none" xmlns="http://www.w3.org/2000/svg">
<path d="M10.5 12.5417C8.72663 12.5417 7.29163 11.1067 7.29163 9.33333C7.29163 7.56 8.72663 6.125 10.5 6.125C12.2733 6.125 13.7083 7.56 13.7083 9.33333C13.7083 11.1067 12.2733 12.5417 10.5 12.5417ZM10.5 7.875C9.69496 7.875 9.04163 8.52833 9.04163 9.33333C9.04163 10.1383 9.69496 10.7917 10.5 10.7917C11.305 10.7917 11.9583 10.1383 11.9583 9.33333C11.9583 8.52833 11.305 7.875 10.5 7.875Z" fill="#6B6B6B"/>
<path d="M10.5 12.5417C8.72663 12.5417 7.29163 11.1067 7.29163 9.33333C7.29163 7.56 8.72663 6.125 10.5 6.125C12.2733 6.125 13.7083 7.56 13.7083 9.33333C13.7083 11.1067 12.2733 12.5417 10.5 12.5417ZM10.5 7.875C9.69496 7.875 9.04163 8.52833 9.04163 9.33333C9.04163 10.1383 9.69496 10.7917 10.5 10.7917C11.305 10.7917 11.9583 10.1383 11.9583 9.33333C11.9583 8.52833 11.305 7.875 10.5 7.875Z" fill="white" fill-opacity="0.3"/>
<path d="M17.5 26.5417H10.5C4.16504 26.5417 1.45837 23.835 1.45837 17.5V10.5C1.45837 4.165 4.16504 1.45833 10.5 1.45833H15.1667C15.645 1.45833 16.0417 1.855 16.0417 2.33333C16.0417 2.81167 15.645 3.20833 15.1667 3.20833H10.5C5.12171 3.20833 3.20837 5.12167 3.20837 10.5V17.5C3.20837 22.8783 5.12171 24.7917 10.5 24.7917H17.5C22.8784 24.7917 24.7917 22.8783 24.7917 17.5V11.6667C24.7917 11.1883 25.1884 10.7917 25.6667 10.7917C26.145 10.7917 26.5417 11.1883 26.5417 11.6667V17.5C26.5417 23.835 23.835 26.5417 17.5 26.5417Z" fill="#6B6B6B"/>
<path d="M17.5 26.5417H10.5C4.16504 26.5417 1.45837 23.835 1.45837 17.5V10.5C1.45837 4.165 4.16504 1.45833 10.5 1.45833H15.1667C15.645 1.45833 16.0417 1.855 16.0417 2.33333C16.0417 2.81167 15.645 3.20833 15.1667 3.20833H10.5C5.12171 3.20833 3.20837 5.12167 3.20837 10.5V17.5C3.20837 22.8783 5.12171 24.7917 10.5 24.7917H17.5C22.8784 24.7917 24.7917 22.8783 24.7917 17.5V11.6667C24.7917 11.1883 25.1884 10.7917 25.6667 10.7917C26.145 10.7917 26.5417 11.1883 26.5417 11.6667V17.5C26.5417 23.835 23.835 26.5417 17.5 26.5417Z" fill="white" fill-opacity="0.3"/>
<path d="M24.7917 6.70833H18.375C17.8967 6.70833 17.5 6.31167 17.5 5.83333C17.5 5.355 17.8967 4.95833 18.375 4.95833H24.7917C25.27 4.95833 25.6667 5.355 25.6667 5.83333C25.6667 6.31167 25.27 6.70833 24.7917 6.70833Z" fill="#6B6B6B"/>
<path d="M24.7917 6.70833H18.375C17.8967 6.70833 17.5 6.31167 17.5 5.83333C17.5 5.355 17.8967 4.95833 18.375 4.95833H24.7917C25.27 4.95833 25.6667 5.355 25.6667 5.83333C25.6667 6.31167 25.27 6.70833 24.7917 6.70833Z" fill="white" fill-opacity="0.3"/>
<path d="M21.5834 9.91667C21.105 9.91667 20.7084 9.52 20.7084 9.04167V2.625C20.7084 2.14667 21.105 1.75 21.5834 1.75C22.0617 1.75 22.4584 2.14667 22.4584 2.625V9.04167C22.4584 9.52 22.0617 9.91667 21.5834 9.91667Z" fill="#6B6B6B"/>
<path d="M21.5834 9.91667C21.105 9.91667 20.7084 9.52 20.7084 9.04167V2.625C20.7084 2.14667 21.105 1.75 21.5834 1.75C22.0617 1.75 22.4584 2.14667 22.4584 2.625V9.04167C22.4584 9.52 22.0617 9.91667 21.5834 9.91667Z" fill="white" fill-opacity="0.3"/>
<path d="M3.11506 22.9833C2.83506 22.9833 2.55506 22.8433 2.39172 22.5983C2.12339 22.2017 2.22839 21.6533 2.62506 21.385L8.37672 17.5233C9.63672 16.6833 11.3751 16.7767 12.5184 17.745L12.9034 18.0833C13.4867 18.585 14.4784 18.585 15.0501 18.0833L19.9034 13.9183C21.1517 12.8567 23.0884 12.8567 24.3367 13.9183L26.2384 15.5517C26.6001 15.8667 26.6467 16.415 26.3317 16.7883C26.0167 17.15 25.4684 17.1967 25.0951 16.8817L23.1934 15.2483C22.6101 14.7467 21.6184 14.7467 21.0467 15.2483L16.1934 19.4133C14.9567 20.475 13.0084 20.475 11.7601 19.4133L11.3751 19.075C10.8384 18.62 9.95172 18.5733 9.35672 18.9817L3.61672 22.8433C3.45339 22.9367 3.27839 22.9833 3.11506 22.9833Z" fill="#6B6B6B"/>
<path d="M3.11506 22.9833C2.83506 22.9833 2.55506 22.8433 2.39172 22.5983C2.12339 22.2017 2.22839 21.6533 2.62506 21.385L8.37672 17.5233C9.63672 16.6833 11.3751 16.7767 12.5184 17.745L12.9034 18.0833C13.4867 18.585 14.4784 18.585 15.0501 18.0833L19.9034 13.9183C21.1517 12.8567 23.0884 12.8567 24.3367 13.9183L26.2384 15.5517C26.6001 15.8667 26.6467 16.415 26.3317 16.7883C26.0167 17.15 25.4684 17.1967 25.0951 16.8817L23.1934 15.2483C22.6101 14.7467 21.6184 14.7467 21.0467 15.2483L16.1934 19.4133C14.9567 20.475 13.0084 20.475 11.7601 19.4133L11.3751 19.075C10.8384 18.62 9.95172 18.5733 9.35672 18.9817L3.61672 22.8433C3.45339 22.9367 3.27839 22.9833 3.11506 22.9833Z" fill="white" fill-opacity="0.3"/>
</svg>
