<svg width="25" height="24" viewBox="0 0 25 24" fill="none" xmlns="http://www.w3.org/2000/svg">
<path d="M15.25 22.75H9.25C3.82 22.75 1.5 20.43 1.5 15V9C1.5 3.57 3.82 1.25 9.25 1.25H15.25C20.68 1.25 23 3.57 23 9V15C23 20.43 20.68 22.75 15.25 22.75ZM9.25 2.75C4.64 2.75 3 4.39 3 9V15C3 19.61 4.64 21.25 9.25 21.25H15.25C19.86 21.25 21.5 19.61 21.5 15V9C21.5 4.39 19.86 2.75 15.25 2.75H9.25Z" fill="#8DC27D"/>
<path d="M8.93 15.3299C8.51 15.3299 8.12 15.2299 7.78 15.0399C6.95 14.5699 6.5 13.6399 6.5 12.4199V2.43994C6.5 2.02994 6.84 1.68994 7.25 1.68994C7.66 1.68994 8 2.02994 8 2.43994V12.4199C8 13.0699 8.19 13.5499 8.52 13.7299C8.87 13.9299 9.41 13.8299 10 13.4799L11.32 12.6899C11.86 12.3699 12.63 12.3699 13.17 12.6899L14.49 13.4799C15.09 13.8399 15.63 13.9299 15.97 13.7299C16.3 13.5399 16.49 13.0599 16.49 12.4199V2.43994C16.49 2.02994 16.83 1.68994 17.24 1.68994C17.65 1.68994 17.99 2.02994 17.99 2.43994V12.4199C17.99 13.6399 17.54 14.5699 16.71 15.0399C15.88 15.5099 14.79 15.4099 13.72 14.7699L12.4 13.9799C12.34 13.9399 12.15 13.9399 12.09 13.9799L10.77 14.7699C10.15 15.1399 9.51 15.3299 8.93 15.3299Z" fill="#8DC27D"/>
<path d="M15.25 22.75H9.25C3.82 22.75 1.5 20.43 1.5 15V9C1.5 3.57 3.82 1.25 9.25 1.25H15.25C20.68 1.25 23 3.57 23 9V15C23 20.43 20.68 22.75 15.25 22.75ZM9.25 2.75C4.64 2.75 3 4.39 3 9V15C3 19.61 4.64 21.25 9.25 21.25H15.25C19.86 21.25 21.5 19.61 21.5 15V9C21.5 4.39 19.86 2.75 15.25 2.75H9.25Z" fill="#8DC27D"/>
<path d="M8.93 15.3299C8.51 15.3299 8.12 15.2299 7.78 15.0399C6.95 14.5699 6.5 13.6399 6.5 12.4199V2.43994C6.5 2.02994 6.84 1.68994 7.25 1.68994C7.66 1.68994 8 2.02994 8 2.43994V12.4199C8 13.0699 8.19 13.5499 8.52 13.7299C8.87 13.9299 9.41 13.8299 10 13.4799L11.32 12.6899C11.86 12.3699 12.63 12.3699 13.17 12.6899L14.49 13.4799C15.09 13.8399 15.63 13.9299 15.97 13.7299C16.3 13.5399 16.49 13.0599 16.49 12.4199V2.43994C16.49 2.02994 16.83 1.68994 17.24 1.68994C17.65 1.68994 17.99 2.02994 17.99 2.43994V12.4199C17.99 13.6399 17.54 14.5699 16.71 15.0399C15.88 15.5099 14.79 15.4099 13.72 14.7699L12.4 13.9799C12.34 13.9399 12.15 13.9399 12.09 13.9799L10.77 14.7699C10.15 15.1399 9.51 15.3299 8.93 15.3299Z" fill="#8DC27D"/>
</svg>
