<svg width="25" height="24" viewBox="0 0 25 24" fill="none" xmlns="http://www.w3.org/2000/svg">
<path d="M15.25 22.75H9.25C3.82 22.75 1.5 20.43 1.5 15V9C1.5 3.57 3.82 1.25 9.25 1.25H15.25C20.68 1.25 23 3.57 23 9V15C23 20.43 20.68 22.75 15.25 22.75ZM9.25 2.75C4.64 2.75 3 4.39 3 9V15C3 19.61 4.64 21.25 9.25 21.25H15.25C19.86 21.25 21.5 19.61 21.5 15V9C21.5 4.39 19.86 2.75 15.25 2.75H9.25Z" fill="#8DC27D"/>
<path d="M8.93 15.33C8.51 15.33 8.12 15.23 7.78 15.04C6.95 14.57 6.5 13.64 6.5 12.42V2.44C6.5 2.03 6.84 1.69 7.25 1.69C7.66 1.69 8 2.03 8 2.44V12.42C8 13.07 8.19 13.55 8.52 13.73C8.87 13.93 9.41 13.83 10 13.48L11.32 12.69C11.86 12.37 12.63 12.37 13.17 12.69L14.49 13.48C15.09 13.84 15.63 13.93 15.97 13.73C16.3 13.54 16.49 13.06 16.49 12.42V2.44C16.49 2.03 16.83 1.69 17.24 1.69C17.65 1.69 17.99 2.03 17.99 2.44V12.42C17.99 13.64 17.54 14.57 16.71 15.04C15.88 15.51 14.79 15.41 13.72 14.77L12.4 13.98C12.34 13.94 12.15 13.94 12.09 13.98L10.77 14.77C10.15 15.14 9.51 15.33 8.93 15.33Z" fill="#8DC27D"/>
<path d="M15.25 22.75H9.25C3.82 22.75 1.5 20.43 1.5 15V9C1.5 3.57 3.82 1.25 9.25 1.25H15.25C20.68 1.25 23 3.57 23 9V15C23 20.43 20.68 22.75 15.25 22.75ZM9.25 2.75C4.64 2.75 3 4.39 3 9V15C3 19.61 4.64 21.25 9.25 21.25H15.25C19.86 21.25 21.5 19.61 21.5 15V9C21.5 4.39 19.86 2.75 15.25 2.75H9.25Z" fill="#6B6B6B"/>
<path d="M8.93 15.33C8.51 15.33 8.12 15.23 7.78 15.04C6.95 14.57 6.5 13.64 6.5 12.42V2.44C6.5 2.03 6.84 1.69 7.25 1.69C7.66 1.69 8 2.03 8 2.44V12.42C8 13.07 8.19 13.55 8.52 13.73C8.87 13.93 9.41 13.83 10 13.48L11.32 12.69C11.86 12.37 12.63 12.37 13.17 12.69L14.49 13.48C15.09 13.84 15.63 13.93 15.97 13.73C16.3 13.54 16.49 13.06 16.49 12.42V2.44C16.49 2.03 16.83 1.69 17.24 1.69C17.65 1.69 17.99 2.03 17.99 2.44V12.42C17.99 13.64 17.54 14.57 16.71 15.04C15.88 15.51 14.79 15.41 13.72 14.77L12.4 13.98C12.34 13.94 12.15 13.94 12.09 13.98L10.77 14.77C10.15 15.14 9.51 15.33 8.93 15.33Z" fill="#6B6B6B"/>
</svg>
