<svg width="28" height="28" viewBox="0 0 28 28" fill="none" xmlns="http://www.w3.org/2000/svg">
<path d="M14 26.6117C13.195 26.6117 12.4367 26.2033 11.9 25.4917L10.15 23.1583C10.115 23.1117 9.97504 23.0533 9.91671 23.0417H9.33337C4.46837 23.0417 1.45837 21.7233 1.45837 15.1667V9.33334C1.45837 4.17668 4.17671 1.45834 9.33337 1.45834H18.6667C23.8234 1.45834 26.5417 4.17668 26.5417 9.33334V15.1667C26.5417 20.3233 23.8234 23.0417 18.6667 23.0417H18.0834C17.99 23.0417 17.9084 23.0883 17.85 23.1583L16.1 25.4917C15.5634 26.2033 14.805 26.6117 14 26.6117ZM9.33337 3.20834C5.15671 3.20834 3.20837 5.15668 3.20837 9.33334V15.1667C3.20837 20.44 5.01671 21.2917 9.33337 21.2917H9.91671C10.5117 21.2917 11.1884 21.63 11.55 22.1083L13.3 24.4417C13.7084 24.9783 14.2917 24.9783 14.7 24.4417L16.45 22.1083C16.835 21.595 17.4417 21.2917 18.0834 21.2917H18.6667C22.8434 21.2917 24.7917 19.3433 24.7917 15.1667V9.33334C24.7917 5.15668 22.8434 3.20834 18.6667 3.20834H9.33337Z" fill="#6B6B6B"/>
<path d="M14 14C13.3467 14 12.8334 13.475 12.8334 12.8333C12.8334 12.1917 13.3584 11.6667 14 11.6667C14.6417 11.6667 15.1667 12.1917 15.1667 12.8333C15.1667 13.475 14.6534 14 14 14Z" fill="#6B6B6B"/>
<path d="M18.6667 14C18.0133 14 17.5 13.475 17.5 12.8333C17.5 12.1917 18.025 11.6667 18.6667 11.6667C19.3083 11.6667 19.8333 12.1917 19.8333 12.8333C19.8333 13.475 19.32 14 18.6667 14Z" fill="#6B6B6B"/>
<path d="M9.33329 14C8.67996 14 8.16663 13.475 8.16663 12.8333C8.16663 12.1917 8.69163 11.6667 9.33329 11.6667C9.97496 11.6667 10.5 12.1917 10.5 12.8333C10.5 13.475 9.98663 14 9.33329 14Z" fill="#6B6B6B"/>
</svg>
