<svg width="20" height="20" viewBox="0 0 20 20" fill="none" xmlns="http://www.w3.org/2000/svg">
<path d="M16.9231 4.79169H3.07692C2.76154 4.79169 2.5 4.50835 2.5 4.16669C2.5 3.82502 2.76154 3.54169 3.07692 3.54169H16.9231C17.2385 3.54169 17.5 3.82502 17.5 4.16669C17.5 4.50835 17.2385 4.79169 16.9231 4.79169Z" fill="#F8F8F8"/>
<path d="M16.9231 10.625H3.07692C2.76154 10.625 2.5 10.3417 2.5 10C2.5 9.65833 2.76154 9.375 3.07692 9.375H16.9231C17.2385 9.375 17.5 9.65833 17.5 10C17.5 10.3417 17.2385 10.625 16.9231 10.625Z" fill="#F8F8F8"/>
<path d="M16.9231 16.4583H3.07692C2.76154 16.4583 2.5 16.175 2.5 15.8333C2.5 15.4916 2.76154 15.2083 3.07692 15.2083H16.9231C17.2385 15.2083 17.5 15.4916 17.5 15.8333C17.5 16.175 17.2385 16.4583 16.9231 16.4583Z" fill="#F8F8F8"/>
</svg>
