<svg width="25" height="24" viewBox="0 0 25 24" fill="none" xmlns="http://www.w3.org/2000/svg">
<path d="M12.77 20.53C10.44 20.53 8.10999 20.16 5.89999 19.42C5.05999 19.13 4.41999 18.54 4.13999 17.77C3.84999 17 3.94999 16.15 4.40999 15.39L5.55999 13.48C5.79999 13.08 6.01999 12.28 6.01999 11.81V8.92004C6.01999 5.20004 9.04999 2.17004 12.77 2.17004C16.49 2.17004 19.52 5.20004 19.52 8.92004V11.81C19.52 12.27 19.74 13.08 19.98 13.49L21.12 15.39C21.55 16.11 21.63 16.98 21.34 17.77C21.05 18.56 20.42 19.16 19.63 19.42C17.43 20.16 15.1 20.53 12.77 20.53ZM12.77 3.67004C9.87999 3.67004 7.51999 6.02004 7.51999 8.92004V11.81C7.51999 12.54 7.21999 13.62 6.84999 14.25L5.69999 16.16C5.47999 16.53 5.41999 16.92 5.54999 17.25C5.66999 17.59 5.96999 17.85 6.37999 17.99C10.56 19.39 14.99 19.39 19.17 17.99C19.53 17.87 19.81 17.6 19.94 17.24C20.07 16.88 20.04 16.49 19.84 16.16L18.69 14.25C18.31 13.6 18.02 12.53 18.02 11.8V8.92004C18.02 6.02004 15.67 3.67004 12.77 3.67004Z" fill="#8DC27D"/>
<path d="M14.63 3.94005C14.56 3.94005 14.49 3.93005 14.42 3.91005C14.13 3.83005 13.85 3.77005 13.58 3.73005C12.73 3.62005 11.91 3.68005 11.14 3.91005C10.86 4.00005 10.56 3.91005 10.37 3.70005C10.18 3.49005 10.12 3.19005 10.23 2.92005C10.64 1.87005 11.64 1.18005 12.78 1.18005C13.92 1.18005 14.92 1.86005 15.33 2.92005C15.43 3.19005 15.38 3.49005 15.19 3.70005C15.04 3.86005 14.83 3.94005 14.63 3.94005Z" fill="#8DC27D"/>
<path d="M12.77 22.8101C11.78 22.8101 10.82 22.4101 10.12 21.7101C9.42002 21.0101 9.02002 20.0501 9.02002 19.0601H10.52C10.52 19.6501 10.76 20.2301 11.18 20.6501C11.6 21.0701 12.18 21.3101 12.77 21.3101C14.01 21.3101 15.02 20.3001 15.02 19.0601H16.52C16.52 21.1301 14.84 22.8101 12.77 22.8101Z" fill="#8DC27D"/>
</svg>
