<svg width="25" height="24" viewBox="0 0 25 24" fill="none" xmlns="http://www.w3.org/2000/svg">
<path d="M12.77 20.53C10.44 20.53 8.10999 20.16 5.89999 19.42C5.05999 19.13 4.41999 18.54 4.13999 17.77C3.84999 17 3.94999 16.15 4.40999 15.39L5.55999 13.48C5.79999 13.08 6.01999 12.28 6.01999 11.81V8.92C6.01999 5.2 9.04999 2.17 12.77 2.17C16.49 2.17 19.52 5.2 19.52 8.92V11.81C19.52 12.27 19.74 13.08 19.98 13.49L21.12 15.39C21.55 16.11 21.63 16.98 21.34 17.77C21.05 18.56 20.42 19.16 19.63 19.42C17.43 20.16 15.1 20.53 12.77 20.53ZM12.77 3.67C9.87999 3.67 7.51999 6.02 7.51999 8.92V11.81C7.51999 12.54 7.21999 13.62 6.84999 14.25L5.69999 16.16C5.47999 16.53 5.41999 16.92 5.54999 17.25C5.66999 17.59 5.96999 17.85 6.37999 17.99C10.56 19.39 14.99 19.39 19.17 17.99C19.53 17.87 19.81 17.6 19.94 17.24C20.07 16.88 20.04 16.49 19.84 16.16L18.69 14.25C18.31 13.6 18.02 12.53 18.02 11.8V8.92C18.02 6.02 15.67 3.67 12.77 3.67Z" fill="#6B6B6B"/>
<path d="M14.63 3.94C14.56 3.94 14.49 3.93 14.42 3.91C14.13 3.83 13.85 3.77 13.58 3.73C12.73 3.62 11.91 3.68 11.14 3.91C10.86 4 10.56 3.91 10.37 3.7C10.18 3.49 10.12 3.19 10.23 2.92C10.64 1.87 11.64 1.18 12.78 1.18C13.92 1.18 14.92 1.86 15.33 2.92C15.43 3.19 15.38 3.49 15.19 3.7C15.04 3.86 14.83 3.94 14.63 3.94Z" fill="#6B6B6B"/>
<path d="M12.77 22.81C11.78 22.81 10.82 22.41 10.12 21.71C9.42002 21.01 9.02002 20.05 9.02002 19.06H10.52C10.52 19.65 10.76 20.23 11.18 20.65C11.6 21.07 12.18 21.31 12.77 21.31C14.01 21.31 15.02 20.3 15.02 19.06H16.52C16.52 21.13 14.84 22.81 12.77 22.81Z" fill="#6B6B6B"/>
</svg>
