<svg width="32" height="33" viewBox="0 0 32 33" fill="none" xmlns="http://www.w3.org/2000/svg">
<path d="M19.6667 25.8333C19.6667 27.86 18.0267 29.5 16 29.5C13.9734 29.5 12.3334 27.86 12.3334 25.8333C12.3334 23.8067 13.9734 22.1667 16 22.1667C18.0267 22.1667 19.6667 23.8067 19.6667 25.8333ZM14.3334 25.8333C14.3334 26.7533 15.08 27.5 16 27.5C16.92 27.5 17.6667 26.7533 17.6667 25.8333C17.6667 24.9133 16.92 24.1667 16 24.1667C15.08 24.1667 14.3334 24.9133 14.3334 25.8333Z" fill="#6B6B6B"/>
<path d="M19.6667 25.8333C19.6667 27.86 18.0267 29.5 16 29.5C13.9734 29.5 12.3334 27.86 12.3334 25.8333C12.3334 23.8067 13.9734 22.1667 16 22.1667C18.0267 22.1667 19.6667 23.8067 19.6667 25.8333ZM14.3334 25.8333C14.3334 26.7533 15.08 27.5 16 27.5C16.92 27.5 17.6667 26.7533 17.6667 25.8333C17.6667 24.9133 16.92 24.1667 16 24.1667C15.08 24.1667 14.3334 24.9133 14.3334 25.8333Z" fill="white" fill-opacity="0.3"/>
<path d="M19.6667 7.16667C19.6667 9.19333 18.0267 10.8333 16 10.8333C13.9734 10.8333 12.3334 9.19333 12.3334 7.16667C12.3334 5.14 13.9734 3.5 16 3.5C18.0267 3.5 19.6667 5.14 19.6667 7.16667ZM14.3334 7.16667C14.3334 8.08667 15.08 8.83333 16 8.83333C16.92 8.83333 17.6667 8.08667 17.6667 7.16667C17.6667 6.24667 16.92 5.5 16 5.5C15.08 5.5 14.3334 6.24667 14.3334 7.16667Z" fill="#6B6B6B"/>
<path d="M19.6667 7.16667C19.6667 9.19333 18.0267 10.8333 16 10.8333C13.9734 10.8333 12.3334 9.19333 12.3334 7.16667C12.3334 5.14 13.9734 3.5 16 3.5C18.0267 3.5 19.6667 5.14 19.6667 7.16667ZM14.3334 7.16667C14.3334 8.08667 15.08 8.83333 16 8.83333C16.92 8.83333 17.6667 8.08667 17.6667 7.16667C17.6667 6.24667 16.92 5.5 16 5.5C15.08 5.5 14.3334 6.24667 14.3334 7.16667Z" fill="white" fill-opacity="0.3"/>
<path d="M19.6667 16.5C19.6667 18.5267 18.0267 20.1667 16 20.1667C13.9734 20.1667 12.3334 18.5267 12.3334 16.5C12.3334 14.4733 13.9734 12.8333 16 12.8333C18.0267 12.8333 19.6667 14.4733 19.6667 16.5ZM14.3334 16.5C14.3334 17.42 15.08 18.1667 16 18.1667C16.92 18.1667 17.6667 17.42 17.6667 16.5C17.6667 15.58 16.92 14.8333 16 14.8333C15.08 14.8333 14.3334 15.58 14.3334 16.5Z" fill="#6B6B6B"/>
<path d="M19.6667 16.5C19.6667 18.5267 18.0267 20.1667 16 20.1667C13.9734 20.1667 12.3334 18.5267 12.3334 16.5C12.3334 14.4733 13.9734 12.8333 16 12.8333C18.0267 12.8333 19.6667 14.4733 19.6667 16.5ZM14.3334 16.5C14.3334 17.42 15.08 18.1667 16 18.1667C16.92 18.1667 17.6667 17.42 17.6667 16.5C17.6667 15.58 16.92 14.8333 16 14.8333C15.08 14.8333 14.3334 15.58 14.3334 16.5Z" fill="white" fill-opacity="0.3"/>
</svg>
