<svg width="32" height="32" viewBox="0 0 32 32" fill="none" xmlns="http://www.w3.org/2000/svg">
<path d="M6.66667 19.6667C4.64 19.6667 3 18.0267 3 16C3 13.9733 4.64 12.3333 6.66667 12.3333C8.69333 12.3333 10.3333 13.9733 10.3333 16C10.3333 18.0267 8.69333 19.6667 6.66667 19.6667ZM6.66667 14.3333C5.74667 14.3333 5 15.08 5 16C5 16.92 5.74667 17.6667 6.66667 17.6667C7.58667 17.6667 8.33333 16.92 8.33333 16C8.33333 15.08 7.58667 14.3333 6.66667 14.3333Z" fill="#6B6B6B"/>
<path d="M6.66667 19.6667C4.64 19.6667 3 18.0267 3 16C3 13.9733 4.64 12.3333 6.66667 12.3333C8.69333 12.3333 10.3333 13.9733 10.3333 16C10.3333 18.0267 8.69333 19.6667 6.66667 19.6667ZM6.66667 14.3333C5.74667 14.3333 5 15.08 5 16C5 16.92 5.74667 17.6667 6.66667 17.6667C7.58667 17.6667 8.33333 16.92 8.33333 16C8.33333 15.08 7.58667 14.3333 6.66667 14.3333Z" fill="white" fill-opacity="0.3"/>
<path d="M25.3334 19.6667C23.3067 19.6667 21.6667 18.0267 21.6667 16C21.6667 13.9733 23.3067 12.3333 25.3334 12.3333C27.3601 12.3333 29.0001 13.9733 29.0001 16C29.0001 18.0267 27.3601 19.6667 25.3334 19.6667ZM25.3334 14.3333C24.4134 14.3333 23.6667 15.08 23.6667 16C23.6667 16.92 24.4134 17.6667 25.3334 17.6667C26.2534 17.6667 27.0001 16.92 27.0001 16C27.0001 15.08 26.2534 14.3333 25.3334 14.3333Z" fill="#6B6B6B"/>
<path d="M25.3334 19.6667C23.3067 19.6667 21.6667 18.0267 21.6667 16C21.6667 13.9733 23.3067 12.3333 25.3334 12.3333C27.3601 12.3333 29.0001 13.9733 29.0001 16C29.0001 18.0267 27.3601 19.6667 25.3334 19.6667ZM25.3334 14.3333C24.4134 14.3333 23.6667 15.08 23.6667 16C23.6667 16.92 24.4134 17.6667 25.3334 17.6667C26.2534 17.6667 27.0001 16.92 27.0001 16C27.0001 15.08 26.2534 14.3333 25.3334 14.3333Z" fill="white" fill-opacity="0.3"/>
<path d="M15.9999 19.6667C13.9733 19.6667 12.3333 18.0267 12.3333 16C12.3333 13.9733 13.9733 12.3333 15.9999 12.3333C18.0266 12.3333 19.6666 13.9733 19.6666 16C19.6666 18.0267 18.0266 19.6667 15.9999 19.6667ZM15.9999 14.3333C15.0799 14.3333 14.3333 15.08 14.3333 16C14.3333 16.92 15.0799 17.6667 15.9999 17.6667C16.9199 17.6667 17.6666 16.92 17.6666 16C17.6666 15.08 16.9199 14.3333 15.9999 14.3333Z" fill="#6B6B6B"/>
<path d="M15.9999 19.6667C13.9733 19.6667 12.3333 18.0267 12.3333 16C12.3333 13.9733 13.9733 12.3333 15.9999 12.3333C18.0266 12.3333 19.6666 13.9733 19.6666 16C19.6666 18.0267 18.0266 19.6667 15.9999 19.6667ZM15.9999 14.3333C15.0799 14.3333 14.3333 15.08 14.3333 16C14.3333 16.92 15.0799 17.6667 15.9999 17.6667C16.9199 17.6667 17.6666 16.92 17.6666 16C17.6666 15.08 16.9199 14.3333 15.9999 14.3333Z" fill="white" fill-opacity="0.3"/>
</svg>
