<svg width="25" height="24" viewBox="0 0 25 24" fill="none" xmlns="http://www.w3.org/2000/svg">
<path d="M13.5103 22.5C12.9103 22.5 11.9803 22.21 11.0903 20.75L9.33027 17.9C9.16027 17.62 8.64026 17.35 8.32026 17.37L4.98024 17.54C2.98024 17.64 2.28028 16.81 2.03028 16.31C1.78028 15.81 1.56024 14.74 2.86024 13.22L4.84028 10.92C5.04028 10.68 5.15025 10.16 5.06025 9.86002L4.05024 6.63004C3.54024 5.01004 4.11025 4.14004 4.49025 3.76004C4.87024 3.38004 5.75025 2.83003 7.37025 3.37003L10.3203 4.34003C10.5903 4.43003 11.0903 4.35003 11.3203 4.19003L14.4003 1.97003C15.8103 0.950032 16.8302 1.22003 17.3002 1.47003C17.7702 1.72003 18.5702 2.40005 18.5402 4.14005L18.4702 7.93002C18.4602 8.21002 18.6902 8.67003 18.9102 8.84003L21.3903 10.72C22.7403 11.75 22.7903 12.78 22.7003 13.31C22.6103 13.84 22.2103 14.8 20.5903 15.3L17.3602 16.31C17.0602 16.4 16.6902 16.79 16.6102 17.09L15.8403 20.03C15.3303 21.96 14.3303 22.39 13.7703 22.47C13.7003 22.49 13.6103 22.5 13.5103 22.5ZM8.35023 15.87C9.21023 15.87 10.1602 16.39 10.6002 17.11L12.3602 19.96C12.8602 20.78 13.3102 21.03 13.5502 20.99C13.7802 20.96 14.1403 20.58 14.3903 19.66L15.1602 16.72C15.3702 15.92 16.1202 15.13 16.9102 14.89L20.1403 13.88C20.7603 13.69 21.1602 13.38 21.2202 13.06C21.2802 12.74 21.0002 12.32 20.4802 11.92L18.0003 10.04C17.3903 9.58004 16.9503 8.66002 16.9603 7.90002L17.0303 4.11002C17.0403 3.44002 16.8803 2.94004 16.5903 2.79004C16.3003 2.64004 15.8103 2.79002 15.2603 3.18002L12.1802 5.40002C11.5702 5.84002 10.5603 6.00004 9.83027 5.76004L6.88026 4.79004C6.26026 4.59004 5.76028 4.60002 5.53028 4.83002C5.30028 5.06002 5.28023 5.56002 5.47023 6.18002L6.48024 9.41003C6.73024 10.2 6.51023 11.27 5.97023 11.89L3.99025 14.19C3.36025 14.92 3.26025 15.43 3.37025 15.64C3.47025 15.85 3.95028 16.08 4.90028 16.03L8.24025 15.86C8.28025 15.87 8.32023 15.87 8.35023 15.87Z" fill="#8DC27D"/>
<path d="M22.4098 22.75C22.2198 22.75 22.0299 22.68 21.8799 22.53L18.8498 19.5C18.5598 19.21 18.5598 18.73 18.8498 18.44C19.1398 18.15 19.6198 18.15 19.9098 18.44L22.9399 21.47C23.2299 21.76 23.2299 22.24 22.9399 22.53C22.7899 22.68 22.5998 22.75 22.4098 22.75Z" fill="#8DC27D"/>
</svg>
