<svg width="20" height="20" viewBox="0 0 20 20" fill="none" xmlns="http://www.w3.org/2000/svg">
<path d="M9.58329 18.125C4.87496 18.125 1.04163 14.2917 1.04163 9.58334C1.04163 4.87501 4.87496 1.04167 9.58329 1.04167C14.2916 1.04167 18.125 4.87501 18.125 9.58334C18.125 14.2917 14.2916 18.125 9.58329 18.125ZM9.58329 2.29167C5.55829 2.29167 2.29163 5.56667 2.29163 9.58334C2.29163 13.6 5.55829 16.875 9.58329 16.875C13.6083 16.875 16.875 13.6 16.875 9.58334C16.875 5.56667 13.6083 2.29167 9.58329 2.29167Z" fill="#F8F8F8"/>
<path d="M18.3333 18.9583C18.1749 18.9583 18.0166 18.9 17.8916 18.775L14.9498 15.8833C14.7081 15.6417 14.7081 15.2417 14.9498 15C15.1915 14.7583 15.5915 14.7583 15.8331 15L18.7749 17.8917C19.0166 18.1333 19.0166 18.5333 18.7749 18.775C18.6499 18.9 18.4916 18.9583 18.3333 18.9583Z" fill="#F8F8F8"/>
</svg>
