<svg width="32" height="32" viewBox="0 0 32 32" fill="none" xmlns="http://www.w3.org/2000/svg">
<path d="M19.5602 25H12.4402C9.93356 25 8.02689 24.0933 7.08022 22.4533C6.13356 20.8133 6.30689 18.7067 7.56022 16.5333L11.1202 10.36C12.3736 8.2 14.1069 7 16.0002 7C17.8936 7 19.6269 8.2 20.8802 10.3733L24.4402 16.5467C25.6936 18.72 25.8669 20.8267 24.9202 22.4667C23.9736 24.0933 22.0669 25 19.5602 25ZM16.0002 9C14.8536 9 13.7336 9.84 12.8536 11.3733L9.29356 17.5467C8.41356 19.08 8.24022 20.4667 8.81356 21.4667C9.38689 22.4667 10.6802 23.0133 12.4402 23.0133H19.5602C21.3202 23.0133 22.6136 22.4667 23.1869 21.4667C23.7602 20.4667 23.5869 19.08 22.7069 17.5467L19.1469 11.3733C18.2669 9.84 17.1469 9 16.0002 9Z" fill="#8DC27D"/>
</svg>
