<svg width="32" height="32" viewBox="0 0 32 32" fill="none" xmlns="http://www.w3.org/2000/svg">
<path d="M19.56 25H12.44C9.93331 25 8.02665 24.0933 7.07998 22.4533C6.13331 20.8133 6.30665 18.7067 7.55998 16.5333L11.12 10.36C12.3733 8.2 14.1066 7 16 7C17.8933 7 19.6266 8.2 20.88 10.3733L24.44 16.5467C25.6933 18.72 25.8666 20.8267 24.92 22.4667C23.9733 24.0933 22.0666 25 19.56 25ZM16 9C14.8533 9 13.7333 9.84 12.8533 11.3733L9.29331 17.5467C8.41331 19.08 8.23998 20.4667 8.81331 21.4667C9.38665 22.4667 10.68 23.0133 12.44 23.0133H19.56C21.32 23.0133 22.6133 22.4667 23.1866 21.4667C23.76 20.4667 23.5866 19.08 22.7066 17.5467L19.1466 11.3733C18.2666 9.84 17.1466 9 16 9Z" fill="#6B6B6B"/>
</svg>
